PathFileType	4	(X/Y/Z)	StaticT.trc																																																																									
DataRate	CameraRate	NumFrames	NumMarkers	Units	OrigDataRate	OrigDataStartFrame	OrigNumFrames																																																																					
100	100	9	25	mm	100	360	481																																																																					
Frame#	Time	AA			AI			Ant_Sh			CV7			GH			LAH			Lat_Sh			LCAJ			LPH			Post_Sh			RAH			RCAJ			RHLE			RHME			RPH			RUA			SJN			SXS			TS			TV8			centelbow			centpxt8			centijc7			centLPHRPH			ScapulaThoracicContactPt		
		X1	Y1	Z1	X2	Y2	Z2	X3	Y3	Z3	X4	Y4	Z4	X5	Y5	Z5	X6	Y6	Z6	X7	Y7	Z7	X8	Y8	Z8	X9	Y9	Z9	X10	Y10	Z10	X11	Y11	Z11	X12	Y12	Z12	X13	Y13	Z13	X14	Y14	Z14	X15	Y15	Z15	X16	Y16	Z16	X17	Y17	Z17	X18	Y18	Z18	X19	Y19	Z19	X20	Y20	Z20	X21	Y21	Z21	X22	Y22	Z22	X23	Y23	Z23	X24	Y24	Z24	X25	Y25	Z25
																																																																												
361	3.6	-752.902771	1558.019043	764.1859131	-769.3903198	1376.03479	722.3269653	-642.0259399	1576.203735	778.951355	-747.8595581	1597.366577	584.1018066	-694.2531128	1549.539063	776.9609375	-528.3214111	1779.295288	556.3198242	-713.756958	1586.670288	791.2953491	-697.3342896	1595.130981	439.0983582	-727.6547241	1731.581543	517.855896	-766.7402344	1512.530396	774.1984253	-545.9003296	1779.120972	653.5992432	-705.7059326	1589.529175	732.1264038	-722.6082153	1523.695557	1051.913696	-607.6424561	1477.679688	1058.139404	-741.3598022	1734.364136	633.7325439	-723.1965332	1460.71521	905.9137573	-582.9671631	1522.391113	592.0983276	-520.7158203	1343.598999	593.0026855	-802.175293	1505.710938	676.1977539	-754.5362549	1310.108765	585.2967529	-665.1253357	1500.687622	1055.02655	-637.6260376	1326.853882	589.1497192	-665.4133606	1559.878845	588.1000671	-734.5072632	1732.972839	575.79422	-774.8227946	1479.92159	720.9035441
362	3.61	-752.9234009	1558.025024	764.1528931	-769.3474121	1376.019287	722.3010864	-641.9998169	1576.225708	778.9384766	-747.8012085	1597.333862	584.0742798	-694.2042236	1549.563965	776.9312134	-528.2696533	1779.304565	556.3491211	-713.7075195	1586.671021	791.2866211	-697.352417	1595.096069	439.0915527	-727.6182861	1731.604126	517.8197021	-766.7288818	1512.52417	774.1425171	-545.848938	1779.102661	653.5736694	-705.6430054	1589.524292	732.0912476	-722.5622559	1523.700195	1051.893677	-607.6422119	1477.682373	1058.129395	-741.3259888	1734.354858	633.7124023	-723.1833496	1460.70813	905.8580322	-582.9627075	1522.393433	592.0753784	-520.7108765	1343.596191	592.9971313	-802.1390381	1505.670166	676.1768799	-754.5358276	1310.130371	585.302124	-665.1022339	1500.691284	1055.011536	-637.6233521	1326.863281	589.1496277	-665.381958	1559.863647	588.0748291	-734.4721375	1732.979492	575.7660522	-774.8032837	1479.904826	720.8769531
363	3.62	-752.8798218	1558.009766	764.1271362	-769.3480225	1375.997192	722.2960815	-642.0083008	1576.237671	778.9262695	-747.7953491	1597.333496	584.0629272	-694.2531738	1549.566772	776.9219971	-528.2687988	1779.243652	556.3582764	-713.7374268	1586.655151	791.2779541	-697.3306885	1595.13855	439.118866	-727.6152344	1731.604004	517.8307495	-766.7230835	1512.571045	774.1418457	-545.8340454	1779.088135	653.5981445	-705.6436157	1589.521973	732.0917358	-722.5567017	1523.726318	1051.88855	-607.5761108	1477.647095	1058.082886	-741.2922363	1734.345703	633.6921387	-723.2091064	1460.743408	905.8218994	-582.9647827	1522.384644	592.1029053	-520.6567383	1343.51355	592.9789429	-802.1390381	1505.670166	676.1768799	-754.4611206	1310.082031	585.300354	-665.0664063	1500.686707	1054.985718	-637.5589294	1326.797791	589.1396484	-665.3800659	1559.85907	588.0829163	-734.4537354	1732.974854	575.7614441	-774.7889608	1479.892375	720.8666992
364	3.63	-752.8699951	1558.018677	764.1254272	-769.331604	1376.038818	722.2393188	-642.0032349	1576.272217	778.9259644	-747.7527466	1597.335693	584.0705566	-694.222229	1549.592529	776.9210205	-528.2802734	1779.243896	556.3342285	-713.7146606	1586.667358	791.2512207	-697.2978516	1595.150146	439.0848694	-727.6079102	1731.60144	517.7766724	-766.7234497	1512.550293	774.1373291	-545.8340454	1779.088135	653.5981445	-705.6077271	1589.503052	732.0184937	-722.5411987	1523.718506	1051.833496	-607.6286011	1477.688477	1058.087402	-741.270874	1734.377686	633.6852417	-723.170166	1460.679932	905.7978516	-582.916748	1522.343872	592.0979614	-520.6104126	1343.560913	592.9889526	-802.1341553	1505.675415	676.1670532	-754.4944458	1310.092773	585.2702026	-665.0848999	1500.703491	1054.960449	-637.5524292	1326.826843	589.1295776	-665.3347473	1559.839783	588.084259	-734.4393921	1732.989563	575.730957	-774.7785848	1479.91097	720.8439331
365	3.64	-752.8511963	1558.022583	764.0644531	-769.2948608	1375.97522	722.2140503	-641.980957	1576.244507	778.9144287	-747.7299805	1597.341187	583.9970703	-694.2077026	1549.571411	776.9007568	-528.2397461	1779.299561	556.2937012	-713.7147827	1586.684814	791.2349854	-697.3228149	1595.068115	439.0939026	-727.5643311	1731.630981	517.7973633	-766.6750488	1512.561157	774.1065674	-545.7926636	1779.083496	653.5783691	-705.607666	1589.503174	732.0184937	-722.5411987	1523.718506	1051.833496	-607.6321411	1477.731934	1058.101196	-741.2420044	1734.362183	633.6538086	-723.170166	1460.679932	905.7978516	-582.9118042	1522.395142	592.069519	-520.600708	1343.567871	592.960144	-802.09198	1505.681396	676.1456299	-754.4193115	1310.06604	585.2738647	-665.0866699	1500.72522	1054.967346	-637.5100098	1326.816956	589.1170044	-665.3208923	1559.868164	588.0332947	-734.4031677	1732.996582	575.7255859	-774.7460124	1479.893066	720.8080444
366	3.65	-752.8511963	1558.022583	764.0644531	-769.2462158	1376.006836	722.1876221	-641.9735718	1576.260254	778.8759155	-747.7290039	1597.344238	583.9924927	-694.1891479	1549.607056	776.8685303	-528.2329102	1779.237793	556.2625122	-713.6606445	1586.67395	791.1977539	-697.2806396	1595.098755	439.0736084	-727.5443726	1731.64856	517.7496338	-766.7062378	1512.591064	774.0807495	-545.8074341	1779.096436	653.5540161	-705.6082764	1589.500977	732.0189819	-722.5411987	1523.718506	1051.833496	-607.5734253	1477.739502	1058.083252	-741.1963501	1734.344727	633.626709	-723.2015991	1460.688965	905.7670898	-582.8572388	1522.401978	592.057312	-520.6043701	1343.565308	592.9735107	-802.1290894	1505.664673	676.1208496	-754.3851318	1310.077759	585.3093872	-665.057312	1500.729004	1054.958374	-637.494751	1326.821533	589.141449	-665.2931213	1559.873108	588.0249023	-734.3703613	1732.996643	575.6881714	-774.7421672	1479.898031	720.7909749
367	3.66	-752.8050537	1557.981812	764.03479	-769.2462158	1376.006836	722.1876221	-641.942627	1576.23877	778.8950195	-747.7235107	1597.34314	583.9949951	-694.1923828	1549.549072	776.8778076	-528.2282715	1779.245728	556.2176514	-713.6984253	1586.652344	791.2089844	-697.2988281	1595.07251	439.0618591	-727.5110474	1731.634888	517.763916	-766.6321411	1512.546021	774.0809937	-545.7498169	1779.10022	653.527832	-705.5621948	1589.488892	731.9901123	-722.4952393	1523.702393	1051.809448	-607.5209351	1477.74707	1058.077515	-741.1529541	1734.375854	633.6065063	-723.1645508	1460.706177	905.7925415	-582.803772	1522.360107	592.0509644	-520.6013794	1343.565918	592.9638672	-802.050293	1505.666626	676.1196289	-754.413269	1310.114136	585.2734375	-665.0080872	1500.724731	1054.943481	-637.5073242	1326.840027	589.1186523	-665.2636414	1559.851624	588.0229797	-734.3320007	1733.005371	575.6852112	-774.7005208	1479.885091	720.7806803
368	3.67	-752.8027954	1557.996704	764.0401001	-769.2033081	1375.991333	722.1618042	-641.9428711	1576.239258	778.8945923	-747.6721191	1597.307495	583.9663086	-694.1793823	1549.566528	776.8657837	-528.1928711	1779.241211	556.2265015	-713.6713257	1586.651001	791.1847534	-697.2545166	1595.097168	439.0421448	-727.5076294	1731.641602	517.7250366	-766.6636963	1512.555054	774.0506592	-545.763855	1779.0802	653.5341187	-705.5621338	1589.488892	731.9901123	-722.4797363	1523.673706	1051.750366	-607.5209351	1477.746948	1058.077515	-741.1901245	1734.367554	633.62323	-723.1254883	1460.663818	905.7729492	-582.7509155	1522.320435	592.0383301	-520.5990601	1343.52124	592.9558105	-802.0820313	1505.675903	676.0895996	-754.3713379	1310.098389	585.2469482	-665.0003357	1500.710327	1054.91394	-637.485199	1326.809814	589.1013794	-665.2115173	1559.813965	588.0023193	-734.348877	1733.004578	575.6741333	-774.6960449	1479.88798	720.7638346
369	3.68	-752.7686768	1557.932007	764.0068359	-769.2092285	1375.9646	722.1673584	-641.9180298	1576.24231	778.8320313	-747.6787109	1597.339722	584.005188	-694.117981	1549.547852	776.8323975	-528.1869507	1779.240479	556.1862183	-713.628418	1586.625244	791.1781616	-697.2617188	1595.106079	439.0437012	-727.4871826	1731.589478	517.7385254	-766.5950928	1512.484009	774.0560913	-545.7472534	1779.098022	653.5083618	-705.5256348	1589.472168	731.9163208	-722.4951782	1523.681519	1051.80542	-607.5098877	1477.706787	1058.044556	-741.1553345	1734.333862	633.5991821	-723.1254883	1460.663696	905.7729492	-582.8035889	1522.354248	592.0540771	-520.5947876	1343.520874	592.9359131	-802.0145874	1505.605225	676.0941162	-754.329834	1310.061035	585.2150269	-665.002533	1500.694153	1054.924988	-637.4623108	1326.790955	589.07547	-665.2411499	1559.846985	588.0296326	-734.3212585	1732.96167	575.6688538	-774.6641642	1479.833944	720.7561035
